<svg xmlns="http://www.w3.org/2000/svg" xmlns:v="https://svgstorm.com"
viewBox = "0 0 78 32"
width="78"
height="32">
<g fill="None" fill-opacity="0.0" stroke="#070D3D" stroke-opacity="1.00" stroke-width="0.3"><path d="
M 0.00 9.00 
C 2.05 8.20 4.98 8.82 7.00 8.00
C 7.00 5.33 7.00 2.67 7.00 0.00
L 0.00 0.00
L 0.00 9.00 Z"/>
</g>
<g fill="None" fill-opacity="0.0" stroke="#0A2079" stroke-opacity="1.00" stroke-width="0.3"><path d="
M 7.00 8.00 
C 9.97 6.80 9.74 7.84 10.00 4.00
C 9.74 2.72 10.20 1.29 10.00 0.00
L 7.00 0.00
C 7.00 2.67 7.00 5.33 7.00 8.00 Z"/>
</g>
<g fill="None" fill-opacity="0.0" stroke="#71ACDF" stroke-opacity="1.00" stroke-width="0.3"><path d="
M 10.00 4.00 
C 10.06 4.31 10.79 6.34 11.00 7.00
C 11.09 6.81 12.00 7.00 12.00 7.00
C 12.50 7.00 13.00 7.00 13.00 7.00
C 12.39 4.77 11.66 2.50 12.00 0.00
L 10.00 0.00
C 10.20 1.29 9.74 2.72 10.00 4.00 Z"/>
</g>
<g fill="None" fill-opacity="0.0" stroke="#092D8D" stroke-opacity="1.00" stroke-width="0.3"><path d="
M 13.00 7.00 
C 13.32 7.41 14.51 7.90 15.00 8.00
C 16.27 6.61 10.98 2.00 13.00 0.00
L 12.00 0.00
C 11.66 2.50 12.39 4.77 13.00 7.00 Z"/>
</g>
<g fill="None" fill-opacity="0.0" stroke="#031935" stroke-opacity="1.00" stroke-width="0.3"><path d="
M 15.00 8.00 
C 18.02 8.64 21.90 8.00 25.00 8.00
C 25.50 8.00 26.50 8.00 27.00 8.00
C 33.73 5.14 45.66 9.21 49.00 0.00
L 13.00 0.00
C 10.98 2.00 16.27 6.61 15.00 8.00 Z"/>
</g>
<g fill="None" fill-opacity="0.0" stroke="#043A6D" stroke-opacity="1.00" stroke-width="0.3"><path d="
M 27.00 8.00 
C 32.59 8.00 38.44 7.50 44.00 8.00
C 47.68 6.64 48.95 2.29 54.02 2.02 C 59.10 1.76 60.01 7.63 63.00 9.00
C 65.77 9.83 70.09 9.00 73.00 9.00
C 71.36 8.83 68.34 7.07 66.00 8.00
C 66.17 4.40 61.51 2.85 60.00 0.00
L 49.00 0.00
C 45.66 9.21 33.73 5.14 27.00 8.00 Z"/>
</g>
<g fill="None" fill-opacity="0.0" stroke="#031760" stroke-opacity="1.00" stroke-width="0.3"><path d="
M 73.00 9.00 
C 74.67 9.00 76.33 9.00 78.00 9.00
L 78.00 1.00
C 77.50 1.00 77.00 1.00 77.00 1.00
C 76.65 0.97 76.17 0.34 76.00 0.00
L 72.00 0.00
C 71.66 2.06 69.32 2.03 69.00 0.00
L 60.00 0.00
C 61.51 2.85 66.17 4.40 66.00 8.00
C 68.34 7.07 71.36 8.83 73.00 9.00 Z"/>
</g>
<g fill="None" fill-opacity="0.0" stroke="#3064C2" stroke-opacity="1.00" stroke-width="0.3"><path d="
M 72.00 0.00 
L 71.00 0.00
C 71.23 1.05 69.80 0.74 70.00 0.00
L 69.00 0.00
C 69.32 2.03 71.66 2.06 72.00 0.00 Z"/>
</g>
<g fill="None" fill-opacity="0.0" stroke="#A3E9FF" stroke-opacity="1.00" stroke-width="0.3"><path d="
M 71.00 0.00 
L 70.00 0.00
C 69.80 0.74 71.23 1.05 71.00 0.00 Z"/>
</g>
<g fill="None" fill-opacity="0.0" stroke="#7F7FE3" stroke-opacity="1.00" stroke-width="0.3"><path d="
M 77.00 1.00 
C 76.75 0.75 77.00 0.00 77.00 0.00
L 76.00 0.00
C 76.17 0.34 76.65 0.97 77.00 1.00 Z"/>
</g>
<g fill="None" fill-opacity="0.0" stroke="#524EBB" stroke-opacity="1.00" stroke-width="0.3"><path d="
M 77.00 1.00 
C 77.00 1.00 77.50 1.00 78.00 1.00
L 78.00 0.00
L 77.00 0.00
C 77.00 0.00 76.75 0.75 77.00 1.00 Z"/>
</g>
<g fill="None" fill-opacity="0.0" stroke="#06659F" stroke-opacity="1.00" stroke-width="0.3"><path d="
M 44.00 8.00 
C 48.13 7.79 49.63 4.38 54.01 4.01 C 58.38 3.64 59.50 7.95 63.00 9.00
C 60.01 7.63 59.10 1.76 54.02 2.02 C 48.95 2.29 47.68 6.64 44.00 8.00 Z"/>
</g>
<g fill="None" fill-opacity="0.0" stroke="#194698" stroke-opacity="1.00" stroke-width="0.3"><path d="
M 7.00 8.00 
C 4.98 8.82 2.05 8.20 0.00 9.00
L 0.00 12.00
C 1.34 12.73 2.64 13.34 4.00 14.00
C 1.04 15.26 -0.28 19.32 3.00 21.00
C 1.75 21.30 1.29 22.83 0.00 23.00
L 0.00 32.00
L 7.00 32.00
C 8.29 30.53 11.10 28.76 12.00 27.00
C 11.80 26.68 11.09 26.25 11.00 26.00
C 10.63 24.97 11.10 25.55 11.00 25.00
C 10.97 24.65 10.02 24.20 10.00 24.00
C 9.94 23.45 10.00 23.41 10.00 23.00
C 10.10 21.42 9.64 21.97 9.00 21.00
C 7.88 22.18 5.21 15.81 5.00 14.00
C 7.40 15.09 7.67 18.00 9.00 20.00
C 10.82 19.62 13.14 20.00 15.00 20.00
C 15.50 20.00 16.00 20.00 16.00 20.00
C 15.58 19.79 15.16 18.39 15.00 18.00
C 14.64 17.14 14.35 15.95 14.00 15.00
C 11.13 12.06 7.30 13.84 4.00 12.00
C 5.07 8.32 10.43 10.43 11.00 7.00
C 10.79 6.34 10.06 4.31 10.00 4.00
C 9.74 7.84 9.97 6.80 7.00 8.00
M 6.00 23.00 
C 6.73 23.73 5.29 25.67 4.29 24.63 C 3.30 23.60 5.45 22.45 6.00 23.00
M 2.00 26.00 
C 3.79 27.79 1.23 25.23 2.00 26.00 Z"/>
</g>
<g fill="None" fill-opacity="0.0" stroke="#18A8D3" stroke-opacity="1.00" stroke-width="0.3"><path d="
M 44.00 8.00 
C 43.98 8.00 44.00 9.00 44.00 9.00
C 50.17 10.10 58.81 1.50 64.00 11.00
C 56.74 21.65 47.39 13.26 38.00 13.00
C 44.13 22.59 21.99 26.63 25.00 15.00
C 28.32 15.25 27.66 12.58 26.00 11.00
C 26.87 10.05 28.68 10.46 29.00 9.00
C 27.67 9.00 26.33 9.00 25.00 9.00
C 22.23 9.00 16.48 10.14 14.00 9.00
C 14.67 11.30 14.51 13.16 16.00 15.00
C 16.37 12.45 19.60 12.55 22.00 13.00
C 22.97 13.18 24.03 12.86 25.00 13.00
C 24.77 15.51 21.99 17.05 23.00 20.00
C 28.43 25.55 35.06 23.75 41.00 20.00
C 46.28 19.05 52.62 20.00 58.00 20.00
C 61.45 19.04 60.87 15.48 63.00 14.00
C 67.05 11.19 73.42 14.04 78.00 13.00
L 78.00 9.00
C 76.33 9.00 74.67 9.00 73.00 9.00
C 70.09 9.00 65.77 9.83 63.00 9.00
C 59.50 7.95 58.38 3.64 54.01 4.01 C 49.63 4.38 48.13 7.79 44.00 8.00 Z"/>
</g>
<g fill="None" fill-opacity="0.0" stroke="#42DEEB" stroke-opacity="1.00" stroke-width="0.3"><path d="
M 44.00 9.00 
C 39.09 9.44 33.93 9.00 29.00 9.00
C 28.68 10.46 26.87 10.05 26.00 11.00
C 27.66 12.58 28.32 15.25 25.00 15.00
C 21.99 26.63 44.13 22.59 38.00 13.00
C 47.39 13.26 56.74 21.65 64.00 11.00
C 58.81 1.50 50.17 10.10 44.00 9.00
M 58.00 8.00 
C 61.46 10.09 53.54 16.93 50.33 13.67 C 47.12 10.41 54.93 6.14 58.00 8.00
M 35.00 15.00 
C 38.34 17.07 31.43 22.74 28.33 19.67 C 25.23 16.60 31.92 13.10 35.00 15.00 Z"/>
</g>
<g fill="None" fill-opacity="0.0" stroke="#2678B7" stroke-opacity="1.00" stroke-width="0.3"><path d="
M 14.00 15.00 
C 13.84 14.56 14.00 14.00 14.00 14.00
C 12.73 12.19 10.03 11.81 8.00 12.00
C 9.36 10.94 10.90 10.53 12.00 9.00
C 11.87 8.54 12.23 7.16 12.00 7.00
C 12.00 7.00 11.09 6.81 11.00 7.00
C 10.43 10.43 5.07 8.32 4.00 12.00
C 7.30 13.84 11.13 12.06 14.00 15.00 Z"/>
</g>
<g fill="None" fill-opacity="0.0" stroke="#78DCF5" stroke-opacity="1.00" stroke-width="0.3"><path d="
M 12.00 9.00 
C 12.39 10.34 13.44 12.37 14.00 14.00
C 14.00 14.00 13.84 14.56 14.00 15.00
C 14.35 15.95 14.64 17.14 15.00 18.00
C 15.02 17.72 16.06 16.91 16.00 16.00
C 15.97 15.50 16.00 15.00 16.00 15.00
C 14.51 13.16 14.67 11.30 14.00 9.00
C 13.96 8.86 13.00 7.00 13.00 7.00
C 13.00 7.00 12.50 7.00 12.00 7.00
C 12.23 7.16 11.87 8.54 12.00 9.00 Z"/>
</g>
<g fill="None" fill-opacity="0.0" stroke="#155789" stroke-opacity="1.00" stroke-width="0.3"><path d="
M 14.00 9.00 
C 16.48 10.14 22.23 9.00 25.00 9.00
C 24.78 8.87 25.00 8.00 25.00 8.00
C 21.90 8.00 18.02 8.64 15.00 8.00
C 14.51 7.90 13.32 7.41 13.00 7.00
C 13.00 7.00 13.96 8.86 14.00 9.00 Z"/>
</g>
<g fill="None" fill-opacity="0.0" stroke="#107696" stroke-opacity="1.00" stroke-width="0.3"><path d="
M 25.00 9.00 
C 26.33 9.00 27.67 9.00 29.00 9.00
C 33.93 9.00 39.09 9.44 44.00 9.00
C 44.00 9.00 43.98 8.00 44.00 8.00
C 38.44 7.50 32.59 8.00 27.00 8.00
C 26.50 8.00 25.50 8.00 25.00 8.00
C 25.00 8.00 24.78 8.87 25.00 9.00 Z"/>
</g>
<g fill="None" fill-opacity="0.0" stroke="#E4FEFD" stroke-opacity="1.00" stroke-width="0.3"><path d="
M 58.00 8.00 
C 54.93 6.14 47.12 10.41 50.33 13.67 C 53.54 16.93 61.46 10.09 58.00 8.00 Z"/>
</g>
<g fill="None" fill-opacity="0.0" stroke="#37A4D1" stroke-opacity="1.00" stroke-width="0.3"><path d="
M 14.00 14.00 
C 13.44 12.37 12.39 10.34 12.00 9.00
C 10.90 10.53 9.36 10.94 8.00 12.00
C 10.03 11.81 12.73 12.19 14.00 14.00 Z"/>
</g>
<g fill="None" fill-opacity="0.0" stroke="#092963" stroke-opacity="1.00" stroke-width="0.3"><path d="
M 0.00 23.00 
C 1.29 22.83 1.75 21.30 3.00 21.00
C -0.28 19.32 1.04 15.26 4.00 14.00
C 2.64 13.34 1.34 12.73 0.00 12.00
L 0.00 23.00 Z"/>
</g>
<g fill="None" fill-opacity="0.0" stroke="#09528A" stroke-opacity="1.00" stroke-width="0.3"><path d="
M 16.00 15.00 
C 16.00 15.00 15.97 15.50 16.00 16.00
C 16.79 16.77 17.60 18.67 17.00 20.00
C 23.34 19.43 29.32 31.74 36.08 25.08 C 42.84 18.43 51.36 21.00 60.00 21.00
C 60.50 21.00 61.84 21.23 62.00 21.00
C 61.76 20.83 62.00 20.00 62.00 20.00
C 61.29 19.57 58.85 20.00 58.00 20.00
C 52.62 20.00 46.28 19.05 41.00 20.00
C 37.76 20.98 33.58 27.35 29.00 25.00 C 24.42 22.65 22.38 20.57 19.00 17.00
C 19.24 14.29 24.21 15.90 22.00 13.00
C 19.60 12.55 16.37 12.45 16.00 15.00 Z"/>
</g>
<g fill="None" fill-opacity="0.0" stroke="#1376A7" stroke-opacity="1.00" stroke-width="0.3"><path d="
M 41.00 20.00 
C 35.06 23.75 28.43 25.55 23.00 20.00
C 21.99 17.05 24.77 15.51 25.00 13.00
C 24.03 12.86 22.97 13.18 22.00 13.00
C 24.21 15.90 19.24 14.29 19.00 17.00
C 22.38 20.57 24.42 22.65 29.00 25.00 C 33.58 27.35 37.76 20.98 41.00 20.00 Z"/>
</g>
<g fill="None" fill-opacity="0.0" stroke="#005AC6" stroke-opacity="1.00" stroke-width="0.3"><path d="
M 63.00 14.00 
C 64.01 16.26 63.86 18.17 62.00 20.00
C 62.00 20.00 61.76 20.83 62.00 21.00
C 64.14 22.51 67.20 27.08 70.00 28.00
C 69.63 27.85 68.01 25.45 68.00 25.00
C 69.12 23.46 70.16 19.93 71.00 19.00
C 72.42 17.43 73.47 16.37 76.00 17.00
C 76.00 18.00 76.00 19.00 76.00 20.00
C 76.27 19.75 77.50 20.00 78.00 20.00
L 78.00 13.00
C 73.42 14.04 67.05 11.19 63.00 14.00 Z"/>
</g>
<g fill="None" fill-opacity="0.0" stroke="#4382CC" stroke-opacity="1.00" stroke-width="0.3"><path d="
M 9.00 21.00 
C 8.77 20.65 9.00 20.00 9.00 20.00
C 7.67 18.00 7.40 15.09 5.00 14.00
C 5.21 15.81 7.88 22.18 9.00 21.00 Z"/>
</g>
<g fill="None" fill-opacity="0.0" stroke="#0C7BBD" stroke-opacity="1.00" stroke-width="0.3"><path d="
M 58.00 20.00 
C 58.85 20.00 61.29 19.57 62.00 20.00
C 63.86 18.17 64.01 16.26 63.00 14.00
C 60.87 15.48 61.45 19.04 58.00 20.00 Z"/>
</g>
<g fill="None" fill-opacity="0.0" stroke="#E8FEFC" stroke-opacity="1.00" stroke-width="0.3"><path d="
M 35.00 15.00 
C 31.92 13.10 25.23 16.60 28.33 19.67 C 31.43 22.74 38.34 17.07 35.00 15.00 Z"/>
</g>
<g fill="None" fill-opacity="0.0" stroke="#51A9DA" stroke-opacity="1.00" stroke-width="0.3"><path d="
M 15.00 18.00 
C 15.16 18.39 15.58 19.79 16.00 20.00
C 16.50 20.00 17.00 20.00 17.00 20.00
C 17.60 18.67 16.79 16.77 16.00 16.00
C 16.06 16.91 15.02 17.72 15.00 18.00 Z"/>
</g>
<g fill="None" fill-opacity="0.0" stroke="#0778E0" stroke-opacity="1.00" stroke-width="0.3"><path d="
M 71.00 19.00 
C 72.11 18.11 74.29 17.27 75.00 19.00
C 75.18 19.43 75.18 20.58 75.00 21.00
C 74.03 23.30 72.37 27.82 70.00 26.00
C 69.71 25.78 69.26 25.12 69.00 25.00
C 68.86 25.22 68.00 25.00 68.00 25.00
C 68.01 25.45 69.63 27.85 70.00 28.00
C 70.43 28.17 71.57 28.17 72.00 28.00
C 74.48 26.37 74.11 21.74 76.00 20.00
C 76.00 19.00 76.00 18.00 76.00 17.00
C 73.47 16.37 72.42 17.43 71.00 19.00 Z"/>
</g>
<g fill="None" fill-opacity="0.0" stroke="#0EA9F0" stroke-opacity="1.00" stroke-width="0.3"><path d="
M 71.00 19.00 
C 70.16 19.93 69.12 23.46 68.00 25.00
C 68.00 25.00 68.86 25.22 69.00 25.00
C 69.70 23.87 70.37 22.66 72.00 23.00
C 72.28 24.49 71.98 26.38 70.00 26.00
C 72.37 27.82 74.03 23.30 75.00 21.00
C 74.24 21.75 73.03 22.00 72.00 22.00
C 71.29 19.79 72.90 18.54 75.00 19.00
C 74.29 17.27 72.11 18.11 71.00 19.00 Z"/>
</g>
<g fill="None" fill-opacity="0.0" stroke="#19D3FC" stroke-opacity="1.00" stroke-width="0.3"><path d="
M 75.00 21.00 
C 75.18 20.58 75.18 19.43 75.00 19.00
C 72.90 18.54 71.29 19.79 72.00 22.00
C 73.03 22.00 74.24 21.75 75.00 21.00 Z"/>
</g>
<g fill="None" fill-opacity="0.0" stroke="#031535" stroke-opacity="1.00" stroke-width="0.3"><path d="
M 9.00 21.00 
C 9.64 21.97 10.10 21.42 10.00 23.00
C 9.97 23.50 10.00 24.00 10.00 24.00
C 10.02 24.20 10.97 24.65 11.00 25.00
C 11.05 25.50 11.00 26.00 11.00 26.00
C 11.09 26.25 11.80 26.68 12.00 27.00
C 12.95 28.53 13.82 30.20 14.00 32.00
L 55.00 32.00
C 52.73 30.86 52.92 29.11 54.00 27.00
C 44.50 28.94 24.18 33.11 20.00 21.00
C 18.43 20.61 15.78 21.94 15.00 20.00
C 13.14 20.00 10.82 19.62 9.00 20.00
C 9.00 20.00 8.77 20.65 9.00 21.00 Z"/>
</g>
<g fill="None" fill-opacity="0.0" stroke="#042D5A" stroke-opacity="1.00" stroke-width="0.3"><path d="
M 54.00 27.00 
C 53.80 27.04 59.00 24.00 59.00 24.00
C 59.48 23.52 59.83 21.10 60.00 21.00
C 51.36 21.00 42.84 18.43 36.08 25.08 C 29.32 31.74 23.34 19.43 17.00 20.00
C 17.00 20.00 16.50 20.00 16.00 20.00
C 16.00 20.00 15.50 20.00 15.00 20.00
C 15.78 21.94 18.43 20.61 20.00 21.00
C 24.18 33.11 44.50 28.94 54.00 27.00 Z"/>
</g>
<g fill="None" fill-opacity="0.0" stroke="#0827DF" stroke-opacity="1.00" stroke-width="0.3"><path d="
M 72.00 28.00 
C 74.97 26.79 75.13 29.19 75.00 32.00
L 78.00 32.00
L 78.00 20.00
C 77.50 20.00 76.27 19.75 76.00 20.00
C 74.11 21.74 74.48 26.37 72.00 28.00 Z"/>
</g>
<g fill="None" fill-opacity="0.0" stroke="#0A1F94" stroke-opacity="1.00" stroke-width="0.3"><path d="
M 59.00 24.00 
C 63.33 23.67 69.65 27.35 71.00 32.00
L 75.00 32.00
C 75.13 29.19 74.97 26.79 72.00 28.00
C 71.57 28.17 70.43 28.17 70.00 28.00
C 67.20 27.08 64.14 22.51 62.00 21.00
C 61.84 21.23 60.50 21.00 60.00 21.00
C 59.83 21.10 59.48 23.52 59.00 24.00 Z"/>
</g>
<g fill="None" fill-opacity="0.0" stroke="#88C7F0" stroke-opacity="1.00" stroke-width="0.3"><path d="
M 6.00 23.00 
C 5.45 22.45 3.30 23.60 4.29 24.63 C 5.29 25.67 6.73 23.73 6.00 23.00 Z"/>
</g>
<g fill="None" fill-opacity="0.0" stroke="#5587DC" stroke-opacity="1.00" stroke-width="0.3"><path d="
M 10.00 24.00 
C 10.00 24.00 9.97 23.50 10.00 23.00
C 10.00 23.41 9.94 23.45 10.00 24.00 Z"/>
</g>
<g fill="None" fill-opacity="0.0" stroke="#20DEFD" stroke-opacity="1.00" stroke-width="0.3"><path d="
M 69.00 25.00 
C 69.26 25.12 69.71 25.78 70.00 26.00
C 71.98 26.38 72.28 24.49 72.00 23.00
C 70.37 22.66 69.70 23.87 69.00 25.00 Z"/>
</g>
<g fill="None" fill-opacity="0.0" stroke="#0B0F59" stroke-opacity="1.00" stroke-width="0.3"><path d="
M 54.00 27.00 
C 52.92 29.11 52.73 30.86 55.00 32.00
L 71.00 32.00
C 69.65 27.35 63.33 23.67 59.00 24.00
C 59.00 24.00 53.80 27.04 54.00 27.00 Z"/>
</g>
<g fill="None" fill-opacity="0.0" stroke="#77A7F9" stroke-opacity="1.00" stroke-width="0.3"><path d="
M 11.00 26.00 
C 11.00 26.00 11.05 25.50 11.00 25.00
C 11.10 25.55 10.63 24.97 11.00 26.00 Z"/>
</g>
<g fill="None" fill-opacity="0.0" stroke="#7396D2" stroke-opacity="1.00" stroke-width="0.3"><path d="
M 2.00 26.00 
C 1.23 25.23 3.79 27.79 2.00 26.00 Z"/>
</g>
<g fill="None" fill-opacity="0.0" stroke="#5862C9" stroke-opacity="1.00" stroke-width="0.3"><path d="
M 7.00 32.00 
L 14.00 32.00
C 13.82 30.20 12.95 28.53 12.00 27.00
C 11.10 28.76 8.29 30.53 7.00 32.00 Z"/>
</g>
<g fill="#070D3D" fill-opacity="1.00" stroke="None">
<path d="
M 0.00 9.00 
C 2.05 8.20 4.98 8.82 7.00 8.00
C 7.00 5.33 7.00 2.67 7.00 0.00
L 0.00 0.00
L 0.00 9.00 Z"/>
</g>
<g fill="#0A2079" fill-opacity="1.00" stroke="None">
<path d="
M 7.00 8.00 
C 9.97 6.80 9.74 7.84 10.00 4.00
C 9.74 2.72 10.20 1.29 10.00 0.00
L 7.00 0.00
C 7.00 2.67 7.00 5.33 7.00 8.00 Z"/>
</g>
<g fill="#71ACDF" fill-opacity="1.00" stroke="None">
<path d="
M 10.00 4.00 
C 10.06 4.31 10.79 6.34 11.00 7.00
C 11.09 6.81 12.00 7.00 12.00 7.00
C 12.50 7.00 13.00 7.00 13.00 7.00
C 12.39 4.77 11.66 2.50 12.00 0.00
L 10.00 0.00
C 10.20 1.29 9.74 2.72 10.00 4.00 Z"/>
</g>
<g fill="#092D8D" fill-opacity="1.00" stroke="None">
<path d="
M 13.00 7.00 
C 13.32 7.41 14.51 7.90 15.00 8.00
C 16.27 6.61 10.98 2.00 13.00 0.00
L 12.00 0.00
C 11.66 2.50 12.39 4.77 13.00 7.00 Z"/>
</g>
<g fill="#031935" fill-opacity="1.00" stroke="None">
<path d="
M 15.00 8.00 
C 18.02 8.64 21.90 8.00 25.00 8.00
C 25.50 8.00 26.50 8.00 27.00 8.00
C 33.73 5.14 45.66 9.21 49.00 0.00
L 13.00 0.00
C 10.98 2.00 16.27 6.61 15.00 8.00 Z"/>
</g>
<g fill="#043A6D" fill-opacity="1.00" stroke="None">
<path d="
M 27.00 8.00 
C 32.59 8.00 38.44 7.50 44.00 8.00
C 47.68 6.64 48.95 2.29 54.02 2.02 C 59.10 1.76 60.01 7.63 63.00 9.00
C 65.77 9.83 70.09 9.00 73.00 9.00
C 71.36 8.83 68.34 7.07 66.00 8.00
C 66.17 4.40 61.51 2.85 60.00 0.00
L 49.00 0.00
C 45.66 9.21 33.73 5.14 27.00 8.00 Z"/>
</g>
<g fill="#031760" fill-opacity="1.00" stroke="None">
<path d="
M 73.00 9.00 
C 74.67 9.00 76.33 9.00 78.00 9.00
L 78.00 1.00
C 77.50 1.00 77.00 1.00 77.00 1.00
C 76.65 0.97 76.17 0.34 76.00 0.00
L 72.00 0.00
C 71.66 2.06 69.32 2.03 69.00 0.00
L 60.00 0.00
C 61.51 2.85 66.17 4.40 66.00 8.00
C 68.34 7.07 71.36 8.83 73.00 9.00 Z"/>
</g>
<g fill="#3064C2" fill-opacity="1.00" stroke="None">
<path d="
M 72.00 0.00 
L 71.00 0.00
C 71.23 1.05 69.80 0.74 70.00 0.00
L 69.00 0.00
C 69.32 2.03 71.66 2.06 72.00 0.00 Z"/>
</g>
<g fill="#A3E9FF" fill-opacity="1.00" stroke="None">
<path d="
M 71.00 0.00 
L 70.00 0.00
C 69.80 0.74 71.23 1.05 71.00 0.00 Z"/>
</g>
<g fill="#7F7FE3" fill-opacity="1.00" stroke="None">
<path d="
M 77.00 1.00 
C 76.75 0.75 77.00 0.00 77.00 0.00
L 76.00 0.00
C 76.17 0.34 76.65 0.97 77.00 1.00 Z"/>
</g>
<g fill="#524EBB" fill-opacity="1.00" stroke="None">
<path d="
M 77.00 1.00 
C 77.00 1.00 77.50 1.00 78.00 1.00
L 78.00 0.00
L 77.00 0.00
C 77.00 0.00 76.75 0.75 77.00 1.00 Z"/>
</g>
<g fill="#06659F" fill-opacity="1.00" stroke="None">
<path d="
M 44.00 8.00 
C 48.13 7.79 49.63 4.38 54.01 4.01 C 58.38 3.64 59.50 7.95 63.00 9.00
C 60.01 7.63 59.10 1.76 54.02 2.02 C 48.95 2.29 47.68 6.64 44.00 8.00 Z"/>
</g>
<g fill="#194698" fill-opacity="1.00" stroke="None">
<path d="
M 7.00 8.00 
C 4.98 8.82 2.05 8.20 0.00 9.00
L 0.00 12.00
C 1.34 12.73 2.64 13.34 4.00 14.00
C 1.04 15.26 -0.28 19.32 3.00 21.00
C 1.75 21.30 1.29 22.83 0.00 23.00
L 0.00 32.00
L 7.00 32.00
C 8.29 30.53 11.10 28.76 12.00 27.00
C 11.80 26.68 11.09 26.25 11.00 26.00
C 10.63 24.97 11.10 25.55 11.00 25.00
C 10.97 24.65 10.02 24.20 10.00 24.00
C 9.94 23.45 10.00 23.41 10.00 23.00
C 10.10 21.42 9.64 21.97 9.00 21.00
C 7.88 22.18 5.21 15.81 5.00 14.00
C 7.40 15.09 7.67 18.00 9.00 20.00
C 10.82 19.62 13.14 20.00 15.00 20.00
C 15.50 20.00 16.00 20.00 16.00 20.00
C 15.58 19.79 15.16 18.39 15.00 18.00
C 14.64 17.14 14.35 15.95 14.00 15.00
C 11.13 12.06 7.30 13.84 4.00 12.00
C 5.07 8.32 10.43 10.43 11.00 7.00
C 10.79 6.34 10.06 4.31 10.00 4.00
C 9.74 7.84 9.97 6.80 7.00 8.00
M 6.00 23.00 
C 6.73 23.73 5.29 25.67 4.29 24.63 C 3.30 23.60 5.45 22.45 6.00 23.00
M 2.00 26.00 
C 3.79 27.79 1.23 25.23 2.00 26.00 Z"/>
</g>
<g fill="#18A8D3" fill-opacity="1.00" stroke="None">
<path d="
M 44.00 8.00 
C 43.98 8.00 44.00 9.00 44.00 9.00
C 50.17 10.10 58.81 1.50 64.00 11.00
C 56.74 21.65 47.39 13.26 38.00 13.00
C 44.13 22.59 21.99 26.63 25.00 15.00
C 28.32 15.25 27.66 12.58 26.00 11.00
C 26.87 10.05 28.68 10.46 29.00 9.00
C 27.67 9.00 26.33 9.00 25.00 9.00
C 22.23 9.00 16.48 10.14 14.00 9.00
C 14.67 11.30 14.51 13.16 16.00 15.00
C 16.37 12.45 19.60 12.55 22.00 13.00
C 22.97 13.18 24.03 12.86 25.00 13.00
C 24.77 15.51 21.99 17.05 23.00 20.00
C 28.43 25.55 35.06 23.75 41.00 20.00
C 46.28 19.05 52.62 20.00 58.00 20.00
C 61.45 19.04 60.87 15.48 63.00 14.00
C 67.05 11.19 73.42 14.04 78.00 13.00
L 78.00 9.00
C 76.33 9.00 74.67 9.00 73.00 9.00
C 70.09 9.00 65.77 9.83 63.00 9.00
C 59.50 7.95 58.38 3.64 54.01 4.01 C 49.63 4.38 48.13 7.79 44.00 8.00 Z"/>
</g>
<g fill="#42DEEB" fill-opacity="1.00" stroke="None">
<path d="
M 44.00 9.00 
C 39.09 9.44 33.93 9.00 29.00 9.00
C 28.68 10.46 26.87 10.05 26.00 11.00
C 27.66 12.58 28.32 15.25 25.00 15.00
C 21.99 26.63 44.13 22.59 38.00 13.00
C 47.39 13.26 56.74 21.65 64.00 11.00
C 58.81 1.50 50.17 10.10 44.00 9.00
M 58.00 8.00 
C 61.46 10.09 53.54 16.93 50.33 13.67 C 47.12 10.41 54.93 6.14 58.00 8.00
M 35.00 15.00 
C 38.34 17.07 31.43 22.74 28.33 19.67 C 25.23 16.60 31.92 13.10 35.00 15.00 Z"/>
</g>
<g fill="#2678B7" fill-opacity="1.00" stroke="None">
<path d="
M 14.00 15.00 
C 13.84 14.56 14.00 14.00 14.00 14.00
C 12.73 12.19 10.03 11.81 8.00 12.00
C 9.36 10.94 10.90 10.53 12.00 9.00
C 11.87 8.54 12.23 7.16 12.00 7.00
C 12.00 7.00 11.09 6.81 11.00 7.00
C 10.43 10.43 5.07 8.32 4.00 12.00
C 7.30 13.84 11.13 12.06 14.00 15.00 Z"/>
</g>
<g fill="#78DCF5" fill-opacity="1.00" stroke="None">
<path d="
M 12.00 9.00 
C 12.39 10.34 13.44 12.37 14.00 14.00
C 14.00 14.00 13.84 14.56 14.00 15.00
C 14.35 15.95 14.64 17.14 15.00 18.00
C 15.02 17.72 16.06 16.91 16.00 16.00
C 15.97 15.50 16.00 15.00 16.00 15.00
C 14.51 13.16 14.67 11.30 14.00 9.00
C 13.96 8.86 13.00 7.00 13.00 7.00
C 13.00 7.00 12.50 7.00 12.00 7.00
C 12.23 7.16 11.87 8.54 12.00 9.00 Z"/>
</g>
<g fill="#155789" fill-opacity="1.00" stroke="None">
<path d="
M 14.00 9.00 
C 16.48 10.14 22.23 9.00 25.00 9.00
C 24.78 8.87 25.00 8.00 25.00 8.00
C 21.90 8.00 18.02 8.64 15.00 8.00
C 14.51 7.90 13.32 7.41 13.00 7.00
C 13.00 7.00 13.96 8.86 14.00 9.00 Z"/>
</g>
<g fill="#107696" fill-opacity="1.00" stroke="None">
<path d="
M 25.00 9.00 
C 26.33 9.00 27.67 9.00 29.00 9.00
C 33.93 9.00 39.09 9.44 44.00 9.00
C 44.00 9.00 43.98 8.00 44.00 8.00
C 38.44 7.50 32.59 8.00 27.00 8.00
C 26.50 8.00 25.50 8.00 25.00 8.00
C 25.00 8.00 24.78 8.87 25.00 9.00 Z"/>
</g>
<g fill="#E4FEFD" fill-opacity="1.00" stroke="None">
<path d="
M 58.00 8.00 
C 54.93 6.14 47.12 10.41 50.33 13.67 C 53.54 16.93 61.46 10.09 58.00 8.00 Z"/>
</g>
<g fill="#37A4D1" fill-opacity="1.00" stroke="None">
<path d="
M 14.00 14.00 
C 13.44 12.37 12.39 10.34 12.00 9.00
C 10.90 10.53 9.36 10.94 8.00 12.00
C 10.03 11.81 12.73 12.19 14.00 14.00 Z"/>
</g>
<g fill="#092963" fill-opacity="1.00" stroke="None">
<path d="
M 0.00 23.00 
C 1.29 22.83 1.75 21.30 3.00 21.00
C -0.28 19.32 1.04 15.26 4.00 14.00
C 2.64 13.34 1.34 12.73 0.00 12.00
L 0.00 23.00 Z"/>
</g>
<g fill="#09528A" fill-opacity="1.00" stroke="None">
<path d="
M 16.00 15.00 
C 16.00 15.00 15.97 15.50 16.00 16.00
C 16.79 16.77 17.60 18.67 17.00 20.00
C 23.34 19.43 29.32 31.74 36.08 25.08 C 42.84 18.43 51.36 21.00 60.00 21.00
C 60.50 21.00 61.84 21.23 62.00 21.00
C 61.76 20.83 62.00 20.00 62.00 20.00
C 61.29 19.57 58.85 20.00 58.00 20.00
C 52.62 20.00 46.28 19.05 41.00 20.00
C 37.76 20.98 33.58 27.35 29.00 25.00 C 24.42 22.65 22.38 20.57 19.00 17.00
C 19.24 14.29 24.21 15.90 22.00 13.00
C 19.60 12.55 16.37 12.45 16.00 15.00 Z"/>
</g>
<g fill="#1376A7" fill-opacity="1.00" stroke="None">
<path d="
M 41.00 20.00 
C 35.06 23.75 28.43 25.55 23.00 20.00
C 21.99 17.05 24.77 15.51 25.00 13.00
C 24.03 12.86 22.97 13.18 22.00 13.00
C 24.21 15.90 19.24 14.29 19.00 17.00
C 22.38 20.57 24.42 22.65 29.00 25.00 C 33.58 27.35 37.76 20.98 41.00 20.00 Z"/>
</g>
<g fill="#005AC6" fill-opacity="1.00" stroke="None">
<path d="
M 63.00 14.00 
C 64.01 16.26 63.86 18.17 62.00 20.00
C 62.00 20.00 61.76 20.83 62.00 21.00
C 64.14 22.51 67.20 27.08 70.00 28.00
C 69.63 27.85 68.01 25.45 68.00 25.00
C 69.12 23.46 70.16 19.93 71.00 19.00
C 72.42 17.43 73.47 16.37 76.00 17.00
C 76.00 18.00 76.00 19.00 76.00 20.00
C 76.27 19.75 77.50 20.00 78.00 20.00
L 78.00 13.00
C 73.42 14.04 67.05 11.19 63.00 14.00 Z"/>
</g>
<g fill="#4382CC" fill-opacity="1.00" stroke="None">
<path d="
M 9.00 21.00 
C 8.77 20.65 9.00 20.00 9.00 20.00
C 7.67 18.00 7.40 15.09 5.00 14.00
C 5.21 15.81 7.88 22.18 9.00 21.00 Z"/>
</g>
<g fill="#0C7BBD" fill-opacity="1.00" stroke="None">
<path d="
M 58.00 20.00 
C 58.85 20.00 61.29 19.57 62.00 20.00
C 63.86 18.17 64.01 16.26 63.00 14.00
C 60.87 15.48 61.45 19.04 58.00 20.00 Z"/>
</g>
<g fill="#E8FEFC" fill-opacity="1.00" stroke="None">
<path d="
M 35.00 15.00 
C 31.92 13.10 25.23 16.60 28.33 19.67 C 31.43 22.74 38.34 17.07 35.00 15.00 Z"/>
</g>
<g fill="#51A9DA" fill-opacity="1.00" stroke="None">
<path d="
M 15.00 18.00 
C 15.16 18.39 15.58 19.79 16.00 20.00
C 16.50 20.00 17.00 20.00 17.00 20.00
C 17.60 18.67 16.79 16.77 16.00 16.00
C 16.06 16.91 15.02 17.72 15.00 18.00 Z"/>
</g>
<g fill="#0778E0" fill-opacity="1.00" stroke="None">
<path d="
M 71.00 19.00 
C 72.11 18.11 74.29 17.27 75.00 19.00
C 75.18 19.43 75.18 20.58 75.00 21.00
C 74.03 23.30 72.37 27.82 70.00 26.00
C 69.71 25.78 69.26 25.12 69.00 25.00
C 68.86 25.22 68.00 25.00 68.00 25.00
C 68.01 25.45 69.63 27.85 70.00 28.00
C 70.43 28.17 71.57 28.17 72.00 28.00
C 74.48 26.37 74.11 21.74 76.00 20.00
C 76.00 19.00 76.00 18.00 76.00 17.00
C 73.47 16.37 72.42 17.43 71.00 19.00 Z"/>
</g>
<g fill="#0EA9F0" fill-opacity="1.00" stroke="None">
<path d="
M 71.00 19.00 
C 70.16 19.93 69.12 23.46 68.00 25.00
C 68.00 25.00 68.86 25.22 69.00 25.00
C 69.70 23.87 70.37 22.66 72.00 23.00
C 72.28 24.49 71.98 26.38 70.00 26.00
C 72.37 27.82 74.03 23.30 75.00 21.00
C 74.24 21.75 73.03 22.00 72.00 22.00
C 71.29 19.79 72.90 18.54 75.00 19.00
C 74.29 17.27 72.11 18.11 71.00 19.00 Z"/>
</g>
<g fill="#19D3FC" fill-opacity="1.00" stroke="None">
<path d="
M 75.00 21.00 
C 75.18 20.58 75.18 19.43 75.00 19.00
C 72.90 18.54 71.29 19.79 72.00 22.00
C 73.03 22.00 74.24 21.75 75.00 21.00 Z"/>
</g>
<g fill="#031535" fill-opacity="1.00" stroke="None">
<path d="
M 9.00 21.00 
C 9.64 21.97 10.10 21.42 10.00 23.00
C 9.97 23.50 10.00 24.00 10.00 24.00
C 10.02 24.20 10.97 24.65 11.00 25.00
C 11.05 25.50 11.00 26.00 11.00 26.00
C 11.09 26.25 11.80 26.68 12.00 27.00
C 12.95 28.53 13.82 30.20 14.00 32.00
L 55.00 32.00
C 52.73 30.86 52.92 29.11 54.00 27.00
C 44.50 28.94 24.18 33.11 20.00 21.00
C 18.43 20.61 15.78 21.94 15.00 20.00
C 13.14 20.00 10.82 19.62 9.00 20.00
C 9.00 20.00 8.77 20.65 9.00 21.00 Z"/>
</g>
<g fill="#042D5A" fill-opacity="1.00" stroke="None">
<path d="
M 54.00 27.00 
C 53.80 27.04 59.00 24.00 59.00 24.00
C 59.48 23.52 59.83 21.10 60.00 21.00
C 51.36 21.00 42.84 18.43 36.08 25.08 C 29.32 31.74 23.34 19.43 17.00 20.00
C 17.00 20.00 16.50 20.00 16.00 20.00
C 16.00 20.00 15.50 20.00 15.00 20.00
C 15.78 21.94 18.43 20.61 20.00 21.00
C 24.18 33.11 44.50 28.94 54.00 27.00 Z"/>
</g>
<g fill="#0827DF" fill-opacity="1.00" stroke="None">
<path d="
M 72.00 28.00 
C 74.97 26.79 75.13 29.19 75.00 32.00
L 78.00 32.00
L 78.00 20.00
C 77.50 20.00 76.27 19.75 76.00 20.00
C 74.11 21.74 74.48 26.37 72.00 28.00 Z"/>
</g>
<g fill="#0A1F94" fill-opacity="1.00" stroke="None">
<path d="
M 59.00 24.00 
C 63.33 23.67 69.65 27.35 71.00 32.00
L 75.00 32.00
C 75.13 29.19 74.97 26.79 72.00 28.00
C 71.57 28.17 70.43 28.17 70.00 28.00
C 67.20 27.08 64.14 22.51 62.00 21.00
C 61.84 21.23 60.50 21.00 60.00 21.00
C 59.83 21.10 59.48 23.52 59.00 24.00 Z"/>
</g>
<g fill="#88C7F0" fill-opacity="1.00" stroke="None">
<path d="
M 6.00 23.00 
C 5.45 22.45 3.30 23.60 4.29 24.63 C 5.29 25.67 6.73 23.73 6.00 23.00 Z"/>
</g>
<g fill="#5587DC" fill-opacity="1.00" stroke="None">
<path d="
M 10.00 24.00 
C 10.00 24.00 9.97 23.50 10.00 23.00
C 10.00 23.41 9.94 23.45 10.00 24.00 Z"/>
</g>
<g fill="#20DEFD" fill-opacity="1.00" stroke="None">
<path d="
M 69.00 25.00 
C 69.26 25.12 69.71 25.78 70.00 26.00
C 71.98 26.38 72.28 24.49 72.00 23.00
C 70.37 22.66 69.70 23.87 69.00 25.00 Z"/>
</g>
<g fill="#0B0F59" fill-opacity="1.00" stroke="None">
<path d="
M 54.00 27.00 
C 52.92 29.11 52.73 30.86 55.00 32.00
L 71.00 32.00
C 69.65 27.35 63.33 23.67 59.00 24.00
C 59.00 24.00 53.80 27.04 54.00 27.00 Z"/>
</g>
<g fill="#77A7F9" fill-opacity="1.00" stroke="None">
<path d="
M 11.00 26.00 
C 11.00 26.00 11.05 25.50 11.00 25.00
C 11.10 25.55 10.63 24.97 11.00 26.00 Z"/>
</g>
<g fill="#7396D2" fill-opacity="1.00" stroke="None">
<path d="
M 2.00 26.00 
C 1.23 25.23 3.79 27.79 2.00 26.00 Z"/>
</g>
<g fill="#5862C9" fill-opacity="1.00" stroke="None">
<path d="
M 7.00 32.00 
L 14.00 32.00
C 13.82 30.20 12.95 28.53 12.00 27.00
C 11.10 28.76 8.29 30.53 7.00 32.00 Z"/>
</g>
</svg>